<svg width="21" height="20" viewBox="0 0 21 20" fill="none" xmlns="http://www.w3.org/2000/svg">
<path fill-rule="evenodd" clip-rule="evenodd" d="M3.77983 9.93064C3.77983 8.94658 3.86303 8.32207 5.91811 6.80081C7.61949 5.54132 13.073 1.23737 13.073 1.23737V8.42203H17.2203V18.7626H5.07518C4.36275 18.7626 3.77963 18.1843 3.77963 17.4778L3.77983 9.9307V9.93064Z" fill="#3E9CDC"/>
<path fill-rule="evenodd" clip-rule="evenodd" d="M13.073 8.42194V12.5849L5.45212 17.7335L15.0874 14.6246V8.42194H13.073Z" fill="black" fill-opacity="0.2"/>
<path fill-rule="evenodd" clip-rule="evenodd" d="M9.5904 8.20678C10.0361 7.68017 10.687 7.4943 11.0443 7.79166C11.4017 8.08909 11.3303 8.75712 10.8846 9.28374C10.4392 9.81029 9.78811 9.99596 9.43072 9.69853C9.07333 9.40117 9.14497 8.73327 9.5904 8.20672V8.20678Z" fill="#231F20"/>
</svg>
